# xmcd
#
# Track frame offsets: 
#        150
#        14370
#        28416
#        38586
#        49030
#        68275
#        87587
#        105529
#        123431
#        140405
#        158218
#        172960
#        188921
#        201403
#        216659
#        234518
#        250079
#        268111
#        281635
#        298574
#
# Disc length: 4170 seconds
#
# Revision: 0
# Processed by: cddbd v1.5.2PL0 Copyright (c) Steve Scherf et al.
# Submitted via: ExactAudioCopy v0.99pb5
#
DISCID=29104814
DTITLE=Kolmas Nainen - Tienhaarat 20 hittiä
DYEAR=2010
DGENRE=Pop
TTITLE0=Hyvää ja kaunista
TTITLE1=Äiti pojastaan pappia toivoi
TTITLE2=Maailma on tyly
TTITLE3=Valehtelisin jos väittäisin
TTITLE4=Elämän tarkoitus
TTITLE5=Ooh, Sammy!
TTITLE6=Niin sen täytyi olla
TTITLE7=Pyörteeseen
TTITLE8=Lautalla
TTITLE9=Tästä asti aikaa
TTITLE10=Paskanhajua
TTITLE11=Maanantai
TTITLE12=Oi Suomen nuoria!
TTITLE13=Sylistäsi heräsin
TTITLE14=Pilviin
TTITLE15=Kartat mua
TTITLE16=Pois tilanteesta
TTITLE17=Sähkökitara, hyvää tahtoa ja kavereita
TTITLE18=Helsinki
TTITLE19=Hyvää ja kaunista 2.0.
EXTD=
EXTT0=
EXTT1=
EXTT2=
EXTT3=
EXTT4=
EXTT5=
EXTT6=
EXTT7=
EXTT8=
EXTT9=
EXTT10=
EXTT11=
EXTT12=
EXTT13=
EXTT14=
EXTT15=
EXTT16=
EXTT17=
EXTT18=
EXTT19=
PLAYORDER=
